<svg xmlns="http://www.w3.org/2000/svg" xmlns:xlink="http://www.w3.org/1999/xlink" width="81" zoomAndPan="magnify" viewBox="0 0 60.75 61.499998" height="82" preserveAspectRatio="xMidYMid meet" version="1.0"><defs><clipPath id="f3602dc75b"><path d="M 1.851562 2.105469 L 58.625 2.105469 L 58.625 58.878906 L 1.851562 58.878906 Z M 1.851562 2.105469 " clip-rule="nonzero"/></clipPath><clipPath id="487c97217e"><path d="M 9.78125 18.089844 L 50.867188 18.089844 L 50.867188 43.488281 L 9.78125 43.488281 Z M 9.78125 18.089844 " clip-rule="nonzero"/></clipPath></defs><g clip-path="url(#f3602dc75b)"><path fill="#ffe3e7" d="M 30.238281 2.105469 C 14.5625 2.105469 1.851562 14.8125 1.851562 30.492188 C 1.851562 46.167969 14.5625 58.878906 30.238281 58.878906 C 45.917969 58.878906 58.625 46.167969 58.625 30.492188 C 58.625 14.8125 45.917969 2.105469 30.238281 2.105469 " fill-opacity="1" fill-rule="nonzero"/></g><path fill="#f53163" d="M 35.109375 32.761719 C 33.226562 32.820312 31.460938 33.296875 30.117188 34.414062 C 28.777344 33.296875 27.011719 32.820312 25.128906 32.761719 L 25.128906 29.074219 L 30.035156 30.410156 C 30.089844 30.425781 30.148438 30.425781 30.199219 30.410156 L 35.109375 29.074219 Z M 40.863281 29.136719 C 40.863281 28.953125 40.742188 28.800781 40.574219 28.757812 L 40.574219 27.574219 C 40.828125 27.453125 40.8125 27.058594 40.519531 26.976562 L 30.199219 24.167969 C 30.148438 24.15625 30.089844 24.15625 30.035156 24.167969 L 19.71875 26.976562 C 19.402344 27.0625 19.402344 27.515625 19.71875 27.601562 L 23.707031 28.6875 L 23.707031 34.289062 C 24.078125 34.230469 24.460938 34.203125 24.851562 34.203125 C 27.058594 34.203125 28.996094 34.992188 30.109375 36.460938 L 30.117188 36.464844 L 30.125 36.460938 C 31.242188 34.992188 33.179688 34.203125 35.382812 34.203125 C 35.773438 34.203125 36.160156 34.230469 36.53125 34.289062 L 36.53125 28.6875 L 40.386719 27.636719 L 40.386719 28.757812 C 40.21875 28.800781 40.097656 28.953125 40.097656 29.136719 C 40.097656 29.273438 40.164062 29.390625 40.269531 29.460938 C 40.152344 29.917969 39.824219 31.253906 39.824219 32.367188 C 39.824219 32.367188 39.957031 32.589844 40.480469 32.617188 C 41 32.589844 41.140625 32.367188 41.140625 32.367188 C 41.140625 31.253906 40.808594 29.917969 40.6875 29.460938 C 40.792969 29.390625 40.863281 29.273438 40.863281 29.136719 " fill-opacity="1" fill-rule="nonzero"/><g clip-path="url(#487c97217e)"><path fill="#f53163" d="M 44.125 39.886719 L 33.847656 39.886719 C 33.816406 40.761719 33.089844 41.476562 32.203125 41.476562 L 28.472656 41.476562 C 27.582031 41.476562 26.867188 40.761719 26.828125 39.886719 L 16.492188 39.886719 L 16.492188 20.738281 L 44.125 20.738281 Z M 46.773438 39.917969 C 46.792969 39.769531 46.800781 39.613281 46.800781 39.457031 L 46.800781 21.179688 C 46.800781 19.476562 45.535156 18.09375 43.960938 18.09375 L 16.652344 18.09375 C 15.085938 18.09375 13.816406 19.476562 13.816406 21.179688 L 13.816406 39.457031 C 13.816406 39.613281 13.824219 39.769531 13.839844 39.917969 L 9.800781 39.917969 L 9.800781 40.402344 C 9.800781 42.121094 11.070312 43.488281 12.636719 43.488281 L 47.980469 43.488281 C 49.546875 43.488281 50.8125 42.121094 50.8125 40.402344 L 50.8125 39.917969 L 46.773438 39.917969 " fill-opacity="1" fill-rule="nonzero"/></g></svg>