<svg xmlns="http://www.w3.org/2000/svg" xmlns:xlink="http://www.w3.org/1999/xlink" width="81" zoomAndPan="magnify" viewBox="0 0 60.75 61.499998" height="82" preserveAspectRatio="xMidYMid meet" version="1.0"><defs><clipPath id="c68abe66d0"><path d="M 1.851562 2.105469 L 58.625 2.105469 L 58.625 58.878906 L 1.851562 58.878906 Z M 1.851562 2.105469 " clip-rule="nonzero"/></clipPath><clipPath id="993a1d0689"><path d="M 14.6875 11.664062 L 46.027344 11.664062 L 46.027344 49.367188 L 14.6875 49.367188 Z M 14.6875 11.664062 " clip-rule="nonzero"/></clipPath></defs><g clip-path="url(#c68abe66d0)"><path fill="#ffe3e7" d="M 30.238281 2.105469 C 14.5625 2.105469 1.851562 14.8125 1.851562 30.492188 C 1.851562 46.167969 14.5625 58.878906 30.238281 58.878906 C 45.917969 58.878906 58.625 46.167969 58.625 30.492188 C 58.625 14.8125 45.917969 2.105469 30.238281 2.105469 " fill-opacity="1" fill-rule="nonzero"/></g><g clip-path="url(#993a1d0689)"><path fill="#f53163" d="M 39.085938 42.277344 C 38.570312 42.214844 38.09375 42.570312 38.011719 43.082031 L 37.621094 46.085938 L 34.015625 41.402344 C 34.1875 41.4375 34.367188 41.457031 34.542969 41.457031 C 34.765625 41.457031 34.988281 41.414062 35.199219 41.34375 C 36.363281 40.972656 36.867188 39.777344 37.320312 38.734375 C 37.496094 38.257812 37.722656 37.804688 38.011719 37.390625 L 42.085938 42.691406 Z M 30.355469 37.894531 C 30.128906 37.898438 29.902344 37.929688 29.679688 37.988281 C 29.664062 37.988281 29.664062 37.988281 29.644531 38.003906 C 29.566406 38.007812 29.488281 38.027344 29.417969 38.0625 C 29.402344 38.0625 29.378906 38.082031 29.34375 38.082031 C 28.789062 38.296875 28.253906 38.5625 27.746094 38.882812 C 27.183594 39.21875 26.398438 39.683594 26.097656 39.574219 C 25.742188 39.464844 25.382812 38.625 25.121094 37.988281 C 24.839844 37.117188 24.328125 36.335938 23.640625 35.730469 C 23.414062 35.558594 23.160156 35.433594 22.890625 35.355469 C 22.789062 35.304688 22.679688 35.273438 22.570312 35.261719 C 22.050781 35.136719 21.527344 35.054688 20.992188 35.023438 C 20.316406 34.964844 19.398438 34.871094 19.191406 34.59375 C 18.984375 34.3125 19.191406 33.433594 19.339844 32.78125 C 19.632812 31.894531 19.683594 30.949219 19.492188 30.039062 C 19.113281 29.214844 18.523438 28.5 17.785156 27.96875 C 17.238281 27.5 16.5625 26.902344 16.5625 26.53125 C 16.5625 26.15625 17.238281 25.5625 17.785156 25.078125 C 18.527344 24.554688 19.113281 23.847656 19.492188 23.023438 C 19.683594 22.113281 19.632812 21.167969 19.339844 20.277344 C 19.191406 19.625 18.984375 18.75 19.191406 18.472656 C 19.398438 18.191406 20.316406 18.097656 20.992188 18.042969 C 21.921875 18.042969 22.835938 17.796875 23.640625 17.332031 C 24.328125 16.722656 24.839844 15.945312 25.121094 15.074219 C 25.382812 14.441406 25.742188 13.601562 26.097656 13.492188 C 26.125 13.46875 26.160156 13.464844 26.191406 13.46875 C 26.746094 13.609375 27.277344 13.851562 27.746094 14.179688 C 28.515625 14.734375 29.414062 15.070312 30.355469 15.167969 C 31.300781 15.070312 32.199219 14.734375 32.964844 14.179688 C 33.527344 13.84375 34.316406 13.398438 34.617188 13.492188 C 34.972656 13.601562 35.328125 14.441406 35.59375 15.074219 C 35.875 15.945312 36.386719 16.722656 37.074219 17.332031 C 37.878906 17.796875 38.792969 18.042969 39.71875 18.042969 C 40.398438 18.097656 41.316406 18.191406 41.523438 18.472656 C 41.730469 18.75 41.523438 19.625 41.375 20.277344 C 41.082031 21.167969 41.03125 22.113281 41.222656 23.023438 C 41.597656 23.847656 42.1875 24.554688 42.933594 25.078125 C 43.476562 25.5625 44.152344 26.15625 44.152344 26.53125 C 44.152344 26.902344 43.476562 27.5 42.933594 27.96875 C 42.191406 28.5 41.601562 29.214844 41.222656 30.039062 C 41.03125 30.949219 41.082031 31.894531 41.375 32.78125 C 41.523438 33.433594 41.730469 34.3125 41.523438 34.59375 C 41.316406 34.871094 40.398438 34.964844 39.71875 35.023438 C 39.144531 35.054688 38.574219 35.148438 38.011719 35.300781 C 37.992188 35.300781 37.976562 35.320312 37.957031 35.320312 C 37.640625 35.398438 37.339844 35.535156 37.074219 35.730469 C 36.386719 36.335938 35.875 37.117188 35.59375 37.988281 C 35.328125 38.625 34.972656 39.460938 34.617188 39.574219 C 34.316406 39.664062 33.527344 39.21875 32.964844 38.882812 C 32.460938 38.5625 31.929688 38.296875 31.371094 38.082031 C 31.332031 38.082031 31.3125 38.0625 31.296875 38.0625 C 31.226562 38.027344 31.148438 38.007812 31.070312 38.003906 C 31.050781 37.988281 31.050781 37.988281 31.035156 37.988281 C 30.8125 37.929688 30.585938 37.898438 30.355469 37.894531 Z M 23.09375 46.085938 L 22.699219 43.082031 C 22.621094 42.570312 22.144531 42.214844 21.628906 42.277344 L 18.625 42.691406 L 22.699219 37.390625 C 22.988281 37.804688 23.222656 38.257812 23.394531 38.734375 C 23.84375 39.777344 24.351562 40.972656 25.515625 41.34375 C 25.898438 41.464844 26.304688 41.484375 26.695312 41.402344 Z M 39.984375 36.886719 C 41.128906 36.941406 42.242188 36.507812 43.042969 35.691406 C 43.574219 34.660156 43.625 33.449219 43.195312 32.371094 C 43.023438 31.804688 42.960938 31.207031 43.007812 30.617188 C 43.304688 30.136719 43.695312 29.71875 44.152344 29.382812 C 45.160156 28.75 45.847656 27.707031 46.027344 26.53125 C 45.847656 25.355469 45.160156 24.3125 44.152344 23.675781 C 43.695312 23.34375 43.304688 22.921875 43.007812 22.445312 C 42.960938 21.855469 43.023438 21.261719 43.195312 20.691406 C 43.625 19.617188 43.574219 18.40625 43.042969 17.371094 C 42.210938 16.542969 41.0625 16.113281 39.890625 16.175781 C 39.304688 16.183594 38.722656 16.066406 38.183594 15.839844 C 37.796875 15.398438 37.5 14.886719 37.320312 14.328125 C 36.867188 13.28125 36.363281 12.089844 35.199219 11.714844 C 34.0625 11.527344 32.894531 11.839844 32.007812 12.578125 C 31.511719 12.925781 30.949219 13.171875 30.355469 13.304688 C 29.761719 13.171875 29.203125 12.925781 28.707031 12.578125 C 27.820312 11.84375 26.652344 11.527344 25.515625 11.714844 C 24.351562 12.089844 23.84375 13.28125 23.394531 14.328125 C 23.210938 14.886719 22.917969 15.398438 22.53125 15.839844 C 21.988281 16.066406 21.410156 16.183594 20.820312 16.175781 C 19.648438 16.113281 18.503906 16.542969 17.671875 17.371094 C 17.140625 18.40625 17.089844 19.617188 17.523438 20.691406 C 17.691406 21.261719 17.753906 21.855469 17.707031 22.445312 C 17.40625 22.921875 17.019531 23.34375 16.5625 23.675781 C 15.550781 24.3125 14.867188 25.355469 14.6875 26.53125 C 14.867188 27.707031 15.550781 28.75 16.5625 29.382812 C 17.019531 29.71875 17.40625 30.136719 17.707031 30.617188 C 17.753906 31.207031 17.691406 31.804688 17.523438 32.371094 C 17.089844 33.449219 17.140625 34.660156 17.671875 35.691406 C 18.472656 36.507812 19.585938 36.941406 20.730469 36.886719 L 15.757812 43.34375 C 15.535156 43.648438 15.515625 44.054688 15.703125 44.378906 C 15.894531 44.699219 16.261719 44.878906 16.640625 44.832031 L 20.957031 44.257812 L 21.539062 48.566406 L 21.535156 48.566406 C 21.59375 48.9375 21.867188 49.238281 22.234375 49.332031 C 22.308594 49.351562 22.394531 49.367188 22.476562 49.367188 C 22.769531 49.367188 23.046875 49.226562 23.226562 48.992188 L 30.300781 39.777344 C 30.332031 39.753906 30.378906 39.753906 30.414062 39.777344 L 37.488281 48.992188 C 37.667969 49.226562 37.941406 49.367188 38.238281 49.367188 C 38.320312 49.367188 38.402344 49.355469 38.480469 49.332031 C 38.847656 49.238281 39.121094 48.9375 39.179688 48.566406 L 39.761719 44.257812 L 44.074219 44.832031 C 44.449219 44.878906 44.816406 44.699219 45.007812 44.378906 C 45.203125 44.054688 45.183594 43.648438 44.957031 43.34375 Z M 34.367188 23.375 C 34.777344 23.683594 34.863281 24.269531 34.550781 24.679688 L 29.695312 31.042969 C 29.515625 31.28125 29.238281 31.417969 28.941406 31.417969 C 28.648438 31.417969 28.367188 31.277344 28.191406 31.039062 L 26.160156 28.273438 C 25.855469 27.859375 25.945312 27.277344 26.363281 26.972656 C 26.785156 26.667969 27.371094 26.757812 27.675781 27.171875 L 28.964844 28.921875 L 33.054688 23.554688 C 33.367188 23.148438 33.953125 23.066406 34.367188 23.375 Z M 30.355469 34.929688 C 28.117188 34.929688 25.96875 34.039062 24.382812 32.472656 C 22.800781 30.894531 21.914062 28.757812 21.914062 26.53125 C 21.914062 24.304688 22.800781 22.171875 24.382812 20.59375 C 25.96875 19.019531 28.117188 18.136719 30.355469 18.136719 C 32.597656 18.136719 34.746094 19.019531 36.328125 20.59375 C 37.914062 22.171875 38.800781 24.304688 38.800781 26.53125 C 38.796875 28.757812 37.910156 30.890625 36.324219 32.46875 C 34.746094 34.039062 32.597656 34.925781 30.355469 34.929688 Z M 40.679688 26.53125 C 40.679688 23.8125 39.59375 21.199219 37.65625 19.273438 C 35.71875 17.351562 33.09375 16.269531 30.355469 16.269531 C 27.621094 16.269531 24.992188 17.351562 23.058594 19.273438 C 21.125 21.199219 20.039062 23.8125 20.039062 26.53125 C 20.039062 29.253906 21.125 31.863281 23.058594 33.789062 C 24.992188 35.710938 27.621094 36.792969 30.355469 36.792969 C 33.09375 36.792969 35.71875 35.707031 37.652344 33.785156 C 39.589844 31.863281 40.675781 29.253906 40.679688 26.53125 " fill-opacity="1" fill-rule="nonzero"/></g></svg>