<svg xmlns="http://www.w3.org/2000/svg" xmlns:xlink="http://www.w3.org/1999/xlink" width="81" zoomAndPan="magnify" viewBox="0 0 60.75 61.499998" height="82" preserveAspectRatio="xMidYMid meet" version="1.0"><defs><clipPath id="ff5b87fb22"><path d="M 1.851562 2.105469 L 58.625 2.105469 L 58.625 58.878906 L 1.851562 58.878906 Z M 1.851562 2.105469 " clip-rule="nonzero"/></clipPath><clipPath id="e637c4aa1d"><path d="M 26 38 L 47.882812 38 L 47.882812 48.136719 L 26 48.136719 Z M 26 38 " clip-rule="nonzero"/></clipPath><clipPath id="1656af77b8"><path d="M 12.773438 29 L 24 29 L 24 44 L 12.773438 44 Z M 12.773438 29 " clip-rule="nonzero"/></clipPath><clipPath id="2bff19c093"><path d="M 17 13.027344 L 47.882812 13.027344 L 47.882812 32 L 17 32 Z M 17 13.027344 " clip-rule="nonzero"/></clipPath><clipPath id="dcadf19a1e"><path d="M 12.773438 17 L 24 17 L 24 29 L 12.773438 29 Z M 12.773438 17 " clip-rule="nonzero"/></clipPath></defs><g clip-path="url(#ff5b87fb22)"><path fill="#ffe3e7" d="M 30.238281 2.105469 C 14.5625 2.105469 1.851562 14.8125 1.851562 30.492188 C 1.851562 46.167969 14.5625 58.878906 30.238281 58.878906 C 45.917969 58.878906 58.625 46.167969 58.625 30.492188 C 58.625 14.8125 45.917969 2.105469 30.238281 2.105469 " fill-opacity="1" fill-rule="nonzero"/></g><path fill="#f53163" d="M 36.375 17.191406 L 44.851562 17.191406 C 45.183594 17.191406 45.449219 16.921875 45.449219 16.59375 C 45.449219 16.261719 45.183594 15.992188 44.851562 15.992188 L 36.375 15.992188 C 36.042969 15.992188 35.773438 16.261719 35.773438 16.59375 C 35.773438 16.921875 36.042969 17.191406 36.375 17.191406 Z M 36.375 17.191406 " fill-opacity="1" fill-rule="evenodd"/><path fill="#f53163" d="M 36.375 19.796875 L 44.851562 19.796875 C 45.183594 19.796875 45.449219 19.53125 45.449219 19.199219 C 45.449219 18.867188 45.183594 18.597656 44.851562 18.597656 L 36.375 18.597656 C 36.042969 18.597656 35.773438 18.867188 35.773438 19.199219 C 35.773438 19.53125 36.042969 19.796875 36.375 19.796875 Z M 36.375 19.796875 " fill-opacity="1" fill-rule="evenodd"/><path fill="#f53163" d="M 36.375 22.40625 L 44.851562 22.40625 C 45.183594 22.40625 45.449219 22.136719 45.449219 21.804688 C 45.449219 21.472656 45.183594 21.207031 44.851562 21.207031 L 36.375 21.207031 C 36.042969 21.207031 35.773438 21.472656 35.773438 21.804688 C 35.773438 22.136719 36.042969 22.40625 36.375 22.40625 Z M 36.375 22.40625 " fill-opacity="1" fill-rule="evenodd"/><path fill="#f53163" d="M 36.375 25.011719 L 44.851562 25.011719 C 45.183594 25.011719 45.449219 24.742188 45.449219 24.410156 C 45.449219 24.082031 45.183594 23.8125 44.851562 23.8125 L 36.375 23.8125 C 36.042969 23.8125 35.773438 24.082031 35.773438 24.410156 C 35.773438 24.742188 36.042969 25.011719 36.375 25.011719 Z M 36.375 25.011719 " fill-opacity="1" fill-rule="evenodd"/><g clip-path="url(#e637c4aa1d)"><path fill="#f53163" d="M 47.871094 39.046875 C 47.871094 38.71875 47.605469 38.449219 47.273438 38.449219 L 26.683594 38.449219 C 26.355469 38.449219 26.085938 38.71875 26.085938 39.046875 L 26.085938 47.523438 C 26.085938 47.855469 26.355469 48.125 26.683594 48.125 L 47.273438 48.125 C 47.605469 48.125 47.871094 47.855469 47.871094 47.523438 Z M 27.285156 39.648438 L 27.285156 46.925781 L 46.671875 46.925781 L 46.671875 39.648438 Z M 27.285156 39.648438 " fill-opacity="1" fill-rule="evenodd"/></g><path fill="#f53163" d="M 34.550781 34.808594 C 34.550781 34.476562 34.28125 34.210938 33.953125 34.210938 L 29.105469 34.210938 C 28.777344 34.210938 28.507812 34.476562 28.507812 34.808594 L 28.507812 39.046875 C 28.507812 39.378906 28.777344 39.648438 29.105469 39.648438 L 33.953125 39.648438 C 34.28125 39.648438 34.550781 39.378906 34.550781 39.046875 Z M 29.707031 35.410156 L 29.707031 38.449219 L 33.351562 38.449219 L 33.351562 35.410156 Z M 29.707031 35.410156 " fill-opacity="1" fill-rule="evenodd"/><path fill="#f53163" d="M 44.96875 34.808594 C 44.96875 34.476562 44.699219 34.210938 44.371094 34.210938 L 39.527344 34.210938 C 39.195312 34.210938 38.925781 34.476562 38.925781 34.808594 L 38.925781 39.046875 C 38.925781 39.378906 39.195312 39.648438 39.527344 39.648438 L 44.371094 39.648438 C 44.699219 39.648438 44.96875 39.378906 44.96875 39.046875 Z M 40.125 35.410156 L 40.125 38.449219 L 43.769531 38.449219 L 43.769531 35.410156 Z M 40.125 35.410156 " fill-opacity="1" fill-rule="evenodd"/><g clip-path="url(#1656af77b8)"><path fill="#f53163" d="M 23.652344 30.570312 C 23.652344 30.238281 23.382812 29.972656 23.050781 29.972656 L 17.734375 29.972656 C 14.988281 29.972656 12.765625 32.195312 12.765625 34.941406 C 12.765625 38.410156 12.765625 42.679688 12.765625 42.679688 C 12.765625 43.011719 13.03125 43.28125 13.363281 43.28125 L 23.050781 43.28125 C 23.382812 43.28125 23.652344 43.011719 23.652344 42.679688 Z M 22.453125 31.171875 L 17.734375 31.171875 C 15.652344 31.171875 13.964844 32.859375 13.964844 34.941406 L 13.964844 42.082031 L 22.453125 42.082031 Z M 22.453125 31.171875 " fill-opacity="1" fill-rule="evenodd"/></g><g clip-path="url(#2bff19c093)"><path fill="#f53163" d="M 18.808594 14.214844 L 18.808594 18.460938 C 18.808594 18.792969 18.539062 19.0625 18.207031 19.0625 C 17.878906 19.0625 17.609375 18.792969 17.609375 18.460938 L 17.609375 13.617188 C 17.609375 13.285156 17.875 13.015625 18.207031 13.015625 L 47.273438 13.015625 C 47.605469 13.015625 47.871094 13.285156 47.871094 13.617188 L 47.871094 30.570312 C 47.871094 30.902344 47.605469 31.171875 47.273438 31.171875 L 30.320312 31.171875 C 29.988281 31.171875 29.71875 30.902344 29.71875 30.570312 C 29.71875 30.238281 29.988281 29.972656 30.320312 29.972656 L 46.671875 29.972656 L 46.671875 14.214844 Z M 18.808594 14.214844 " fill-opacity="1" fill-rule="evenodd"/></g><g clip-path="url(#dcadf19a1e)"><path fill="#f53163" d="M 18.207031 17.859375 C 15.203125 17.859375 12.765625 20.300781 12.765625 23.304688 C 12.765625 26.308594 15.203125 28.75 18.207031 28.75 C 21.214844 28.75 23.652344 26.308594 23.652344 23.304688 C 23.652344 20.300781 21.214844 17.859375 18.207031 17.859375 Z M 18.207031 19.0625 C 20.550781 19.0625 22.453125 20.960938 22.453125 23.304688 C 22.453125 25.648438 20.550781 27.550781 18.207031 27.550781 C 15.867188 27.550781 13.964844 25.648438 13.964844 23.304688 C 13.964844 20.960938 15.867188 19.0625 18.207031 19.0625 Z M 18.207031 19.0625 " fill-opacity="1" fill-rule="evenodd"/></g><path fill="#f53163" d="M 23.476562 30.996094 L 33.164062 21.308594 C 33.398438 21.074219 33.398438 20.691406 33.164062 20.457031 C 32.929688 20.226562 32.550781 20.226562 32.316406 20.457031 L 22.628906 30.148438 C 22.394531 30.382812 22.394531 30.761719 22.628906 30.996094 C 22.863281 31.230469 23.242188 31.230469 23.476562 30.996094 Z M 23.476562 30.996094 " fill-opacity="1" fill-rule="evenodd"/></svg>