<svg xmlns="http://www.w3.org/2000/svg" xmlns:xlink="http://www.w3.org/1999/xlink" width="81" zoomAndPan="magnify" viewBox="0 0 60.75 61.499998" height="82" preserveAspectRatio="xMidYMid meet" version="1.0"><defs><clipPath id="77415299ac"><path d="M 1.851562 2.105469 L 58.625 2.105469 L 58.625 58.878906 L 1.851562 58.878906 Z M 1.851562 2.105469 " clip-rule="nonzero"/></clipPath><clipPath id="a6a73d55a5"><path d="M 12 12.894531 L 44 12.894531 L 44 45 L 12 45 Z M 12 12.894531 " clip-rule="nonzero"/></clipPath><clipPath id="30dc3a98ef"><path d="M 21 21 L 48.578125 21 L 48.578125 48 L 21 48 Z M 21 21 " clip-rule="nonzero"/></clipPath></defs><g clip-path="url(#77415299ac)"><path fill="#ffe3e7" d="M 30.238281 2.105469 C 14.5625 2.105469 1.851562 14.8125 1.851562 30.492188 C 1.851562 46.167969 14.5625 58.878906 30.238281 58.878906 C 45.917969 58.878906 58.625 46.167969 58.625 30.492188 C 58.625 14.8125 45.917969 2.105469 30.238281 2.105469 " fill-opacity="1" fill-rule="nonzero"/></g><g clip-path="url(#a6a73d55a5)"><path fill="#f53163" d="M 36.941406 14.945312 L 14.171875 37.542969 L 18.710938 42.0625 L 41.484375 19.464844 Z M 12.46875 36.980469 L 36.375 13.253906 C 36.660156 12.898438 37.15625 12.898438 37.511719 13.253906 L 43.183594 18.902344 C 43.46875 19.183594 43.539062 19.679688 43.183594 20.03125 L 19.351562 43.757812 C 18.996094 44.113281 18.5 44.113281 18.144531 43.757812 L 12.46875 38.109375 C 11.972656 37.613281 12.46875 36.980469 12.46875 36.980469 Z M 12.46875 36.980469 " fill-opacity="1" fill-rule="nonzero"/></g><g clip-path="url(#30dc3a98ef)"><path fill="#f53163" d="M 22.753906 41.5 L 40.773438 23.5625 C 41.835938 22.503906 42.617188 21.445312 44.320312 21.445312 C 46.164062 21.445312 48.578125 23.703125 48.578125 25.679688 C 48.578125 26.246094 48.433594 26.882812 48.082031 27.375 C 47.726562 28.011719 46.945312 28.71875 46.449219 29.140625 L 28.429688 47.148438 C 28.289062 47.289062 28.074219 47.359375 27.863281 47.429688 L 22.828125 47.996094 C 22.402344 47.996094 21.976562 47.714844 21.90625 47.289062 C 21.90625 47.148438 21.90625 47.078125 21.90625 47.007812 L 22.472656 41.992188 C 22.542969 41.78125 22.613281 41.640625 22.753906 41.5 Z M 41.910156 24.691406 L 24.03125 42.417969 L 23.605469 46.230469 L 27.4375 45.808594 L 45.597656 27.800781 C 46.234375 27.164062 46.945312 26.597656 46.945312 25.679688 C 46.945312 24.621094 45.457031 22.996094 44.320312 22.996094 C 43.257812 22.996094 42.546875 23.984375 41.910156 24.691406 Z M 41.910156 24.691406 " fill-opacity="1" fill-rule="nonzero"/></g><path fill="#f53163" d="M 44.320312 30.199219 C 44.605469 30.484375 45.171875 30.484375 45.457031 30.199219 C 45.808594 29.847656 45.808594 29.351562 45.457031 29.070312 L 40.914062 24.550781 C 40.632812 24.199219 40.0625 24.199219 39.78125 24.550781 C 39.496094 24.832031 39.496094 25.328125 39.78125 25.679688 Z M 44.320312 30.199219 " fill-opacity="1" fill-rule="nonzero"/><path fill="#f53163" d="M 42.617188 31.894531 C 42.902344 32.175781 43.46875 32.175781 43.753906 31.894531 C 44.035156 31.542969 44.035156 31.046875 43.753906 30.765625 L 39.214844 26.246094 C 38.859375 25.894531 38.363281 25.894531 38.078125 26.246094 C 37.722656 26.527344 37.722656 27.023438 38.078125 27.375 Z M 42.617188 31.894531 " fill-opacity="1" fill-rule="nonzero"/><path fill="#f53163" d="M 29.566406 44.890625 C 29.847656 45.242188 30.347656 45.242188 30.699219 44.890625 C 30.984375 44.605469 30.984375 44.113281 30.699219 43.757812 L 26.160156 39.238281 C 25.804688 38.957031 25.308594 38.957031 25.027344 39.238281 C 24.671875 39.523438 24.671875 40.085938 25.027344 40.371094 Z M 29.566406 44.890625 " fill-opacity="1" fill-rule="nonzero"/><path fill="#f53163" d="M 27.296875 41.5 C 26.941406 41.851562 26.941406 42.347656 27.296875 42.628906 C 27.578125 42.980469 28.074219 42.980469 28.429688 42.628906 L 36.941406 34.15625 C 37.226562 33.871094 37.226562 33.308594 36.941406 33.023438 C 36.589844 32.671875 36.09375 32.671875 35.808594 33.023438 Z M 27.296875 41.5 " fill-opacity="1" fill-rule="nonzero"/><path fill="#f53163" d="M 31.835938 23.421875 C 32.121094 23.703125 32.617188 23.703125 32.96875 23.421875 C 33.253906 23.066406 33.253906 22.574219 32.96875 22.292969 L 30.699219 20.03125 C 30.347656 19.679688 29.847656 19.679688 29.566406 20.03125 C 29.210938 20.3125 29.210938 20.808594 29.566406 21.160156 Z M 31.835938 23.421875 " fill-opacity="1" fill-rule="nonzero"/><path fill="#f53163" d="M 29.566406 24.550781 C 29.847656 24.832031 30.347656 24.832031 30.699219 24.550781 C 30.984375 24.199219 30.984375 23.703125 30.699219 23.421875 L 29 21.726562 C 28.644531 21.375 28.148438 21.375 27.863281 21.726562 C 27.507812 22.007812 27.507812 22.503906 27.863281 22.855469 Z M 29.566406 24.550781 " fill-opacity="1" fill-rule="nonzero"/><path fill="#f53163" d="M 28.429688 26.8125 C 28.714844 27.09375 29.210938 27.09375 29.566406 26.8125 C 29.847656 26.457031 29.847656 25.964844 29.566406 25.679688 L 27.296875 23.421875 C 26.941406 23.066406 26.445312 23.066406 26.160156 23.421875 C 25.804688 23.703125 25.804688 24.199219 26.160156 24.550781 Z M 28.429688 26.8125 " fill-opacity="1" fill-rule="nonzero"/><path fill="#f53163" d="M 26.160156 27.941406 C 26.445312 28.222656 26.941406 28.222656 27.296875 27.941406 C 27.578125 27.585938 27.578125 27.09375 27.296875 26.8125 L 25.59375 25.117188 C 25.238281 24.761719 24.742188 24.761719 24.457031 25.117188 C 24.101562 25.398438 24.101562 25.894531 24.457031 26.246094 Z M 26.160156 27.941406 " fill-opacity="1" fill-rule="nonzero"/><path fill="#f53163" d="M 25.027344 30.199219 C 25.308594 30.484375 25.804688 30.484375 26.160156 30.199219 C 26.445312 29.847656 26.445312 29.351562 26.160156 29.070312 L 23.890625 26.8125 C 23.535156 26.457031 23.039062 26.457031 22.753906 26.8125 C 22.402344 27.09375 22.402344 27.585938 22.753906 27.941406 Z M 25.027344 30.199219 " fill-opacity="1" fill-rule="nonzero"/><path fill="#f53163" d="M 22.753906 31.332031 C 23.039062 31.613281 23.535156 31.613281 23.890625 31.332031 C 24.175781 30.976562 24.175781 30.484375 23.890625 30.199219 L 22.1875 28.503906 C 21.832031 28.152344 21.335938 28.152344 20.980469 28.503906 C 20.699219 28.789062 20.699219 29.28125 20.980469 29.636719 Z M 22.753906 31.332031 " fill-opacity="1" fill-rule="nonzero"/><path fill="#f53163" d="M 21.550781 33.589844 C 21.90625 33.871094 22.402344 33.871094 22.753906 33.589844 C 23.039062 33.238281 23.039062 32.742188 22.753906 32.460938 L 20.414062 30.199219 C 20.132812 29.847656 19.632812 29.847656 19.28125 30.199219 C 18.996094 30.484375 18.996094 30.976562 19.28125 31.332031 Z M 21.550781 33.589844 " fill-opacity="1" fill-rule="nonzero"/><path fill="#f53163" d="M 19.28125 34.71875 C 19.632812 35.003906 20.132812 35.003906 20.414062 34.71875 C 20.769531 34.4375 20.769531 33.871094 20.414062 33.589844 L 18.710938 31.894531 C 18.429688 31.542969 17.933594 31.542969 17.578125 31.894531 C 17.292969 32.175781 17.292969 32.671875 17.578125 33.023438 Z M 19.28125 34.71875 " fill-opacity="1" fill-rule="nonzero"/><path fill="#f53163" d="M 18.144531 36.980469 C 18.5 37.261719 18.996094 37.261719 19.28125 36.980469 C 19.632812 36.695312 19.632812 36.132812 19.28125 35.851562 L 17.007812 33.589844 C 16.726562 33.308594 16.230469 33.308594 15.875 33.589844 C 15.589844 33.871094 15.589844 34.4375 15.875 34.71875 Z M 18.144531 36.980469 " fill-opacity="1" fill-rule="nonzero"/><path fill="#f53163" d="M 15.875 38.109375 C 16.230469 38.390625 16.726562 38.390625 17.007812 38.109375 C 17.363281 37.828125 17.363281 37.261719 17.007812 36.980469 L 15.308594 35.285156 C 15.023438 35.003906 14.527344 35.003906 14.171875 35.285156 C 13.886719 35.566406 13.886719 36.132812 14.171875 36.414062 Z M 15.875 38.109375 " fill-opacity="1" fill-rule="nonzero"/><path fill="#f53163" d="M 38.574219 19.464844 C 38.574219 19.890625 38.363281 20.242188 38.078125 20.597656 C 37.792969 20.878906 37.367188 21.019531 36.941406 21.019531 C 36.515625 21.019531 36.164062 20.878906 35.878906 20.597656 C 35.523438 20.382812 35.3125 19.890625 35.3125 19.464844 C 35.3125 18.972656 35.523438 18.617188 35.808594 18.335938 C 36.09375 17.984375 36.515625 17.84375 36.941406 17.84375 C 37.367188 17.84375 37.722656 17.984375 38.007812 18.265625 C 38.363281 18.546875 38.574219 19.042969 38.574219 19.464844 Z M 38.574219 19.464844 " fill-opacity="1" fill-rule="nonzero"/></svg>