<svg xmlns="http://www.w3.org/2000/svg" xmlns:xlink="http://www.w3.org/1999/xlink" width="600" zoomAndPan="magnify" viewBox="0 0 450 112.499997" height="150" preserveAspectRatio="xMidYMid meet" version="1.0"><defs><g/><clipPath id="622a16eda6"><path d="M 5.894531 8.050781 L 97.738281 8.050781 L 97.738281 96.90625 L 5.894531 96.90625 Z M 5.894531 8.050781 " clip-rule="nonzero"/></clipPath></defs><g clip-path="url(#622a16eda6)"><path fill="#f53163" d="M 95.996094 93.59375 C 95.332031 93.59375 94.671875 93.527344 94.023438 93.398438 C 93.371094 93.269531 92.738281 93.078125 92.121094 92.824219 C 91.507812 92.570312 90.925781 92.257812 90.375 91.890625 C 89.820312 91.523438 89.308594 91.101562 88.839844 90.632812 C 88.371094 90.164062 87.949219 89.652344 87.582031 89.101562 C 87.210938 88.546875 86.898438 87.964844 86.644531 87.351562 C 86.390625 86.738281 86.199219 86.105469 86.070312 85.453125 C 85.9375 84.800781 85.875 84.144531 85.875 83.480469 C 85.875 82.8125 85.9375 82.15625 86.070312 81.503906 C 86.199219 80.851562 86.390625 80.21875 86.644531 79.605469 C 86.898438 78.992188 87.210938 78.410156 87.582031 77.859375 C 87.949219 77.304688 88.371094 76.792969 88.839844 76.324219 C 89.308594 75.855469 89.820312 75.4375 90.375 75.066406 C 90.925781 74.699219 91.507812 74.386719 92.121094 74.132812 C 92.738281 73.878906 93.371094 73.6875 94.023438 73.558594 C 94.671875 73.429688 95.332031 73.363281 95.996094 73.363281 C 96.28125 73.367188 96.546875 73.289062 96.792969 73.136719 C 97.035156 72.988281 97.21875 72.78125 97.347656 72.523438 C 97.449219 72.214844 97.449219 71.90625 97.347656 71.59375 C 97.355469 71.496094 97.355469 71.394531 97.347656 71.292969 C 97.34375 70.941406 97.230469 70.628906 97.003906 70.359375 C 96.78125 70.085938 96.492188 69.917969 96.144531 69.855469 L 78.527344 47.675781 L 74.804688 28.886719 L 90.203125 22.523438 C 90.5 22.417969 90.738281 22.234375 90.921875 21.976562 C 91.101562 21.71875 91.191406 21.429688 91.191406 21.113281 C 91.191406 20.800781 91.101562 20.511719 90.921875 20.253906 C 90.738281 19.996094 90.5 19.8125 90.203125 19.703125 L 51.9375 8.390625 C 51.644531 8.304688 51.355469 8.304688 51.066406 8.390625 L 12.976562 19.703125 C 12.679688 19.8125 12.441406 19.996094 12.261719 20.253906 C 12.078125 20.511719 11.988281 20.800781 11.988281 21.113281 C 11.988281 21.429688 12.078125 21.71875 12.261719 21.976562 C 12.441406 22.234375 12.679688 22.417969 12.976562 22.523438 L 16.519531 23.996094 L 16.519531 54.398438 L 5.773438 70.453125 C 5.765625 70.554688 5.765625 70.652344 5.773438 70.753906 C 5.765625 70.855469 5.765625 70.953125 5.773438 71.054688 L 5.773438 95.421875 C 5.773438 95.621094 5.8125 95.8125 5.890625 95.996094 C 5.964844 96.179688 6.074219 96.34375 6.214844 96.484375 C 6.355469 96.625 6.515625 96.734375 6.699219 96.808594 C 6.886719 96.886719 7.078125 96.925781 7.277344 96.925781 L 95.996094 96.925781 C 96.195312 96.925781 96.386719 96.886719 96.570312 96.808594 C 96.753906 96.734375 96.917969 96.625 97.058594 96.484375 C 97.199219 96.34375 97.304688 96.179688 97.382812 95.996094 C 97.457031 95.8125 97.496094 95.621094 97.496094 95.421875 C 97.414062 95.234375 97.414062 95.042969 97.496094 94.851562 C 97.4375 94.484375 97.265625 94.183594 96.980469 93.945312 C 96.695312 93.703125 96.367188 93.585938 95.996094 93.59375 Z M 85.550781 75.585938 L 23.542969 75.585938 L 23.542969 72.765625 L 88.402344 72.765625 C 87.304688 73.566406 86.355469 74.519531 85.550781 75.617188 Z M 79.789062 54.007812 L 92.394531 69.761719 L 23.542969 69.761719 L 23.542969 68.832031 C 23.539062 68.207031 23.4375 67.597656 23.238281 67.007812 C 23.039062 66.414062 22.75 65.867188 22.375 65.367188 C 22 64.867188 21.554688 64.4375 21.042969 64.082031 C 20.527344 63.726562 19.972656 63.457031 19.371094 63.28125 L 19.371094 55.296875 L 23.304688 49.296875 L 24.171875 49.296875 L 21.773438 61.300781 C 21.726562 61.519531 21.730469 61.742188 21.785156 61.960938 C 21.839844 62.179688 21.9375 62.375 22.082031 62.550781 C 22.222656 62.722656 22.394531 62.859375 22.597656 62.957031 C 22.804688 63.050781 23.015625 63.101562 23.242188 63.101562 L 79.820312 63.101562 C 80.042969 63.101562 80.257812 63.050781 80.460938 62.957031 C 80.664062 62.859375 80.839844 62.722656 80.980469 62.550781 C 81.125 62.375 81.222656 62.179688 81.277344 61.960938 C 81.328125 61.742188 81.335938 61.519531 81.289062 61.300781 Z M 19.371094 49.867188 L 19.371094 25.226562 L 28.226562 28.886719 L 24.742188 46.355469 L 22.492188 46.355469 C 21.945312 46.355469 21.527344 46.585938 21.230469 47.042969 Z M 77.988281 60.308594 L 25.042969 60.308594 L 25.792969 56.5 L 77.238281 56.5 Z M 76.636719 53.496094 L 26.394531 53.496094 L 31.046875 30.089844 L 50.945312 38.222656 C 51.324219 38.378906 51.707031 38.378906 52.085938 38.222656 L 71.984375 30 Z M 51.515625 11.390625 L 85.160156 21.386719 L 51.515625 35.21875 L 17.871094 21.386719 Z M 17.71875 65.980469 C 18.09375 65.980469 18.453125 66.054688 18.800781 66.195312 C 19.144531 66.339844 19.449219 66.542969 19.714844 66.808594 C 19.980469 67.074219 20.183594 67.378906 20.328125 67.722656 C 20.46875 68.070312 20.542969 68.429688 20.542969 68.804688 L 20.542969 76.066406 C 20.542969 76.441406 20.46875 76.800781 20.328125 77.144531 C 20.183594 77.492188 19.980469 77.796875 19.714844 78.0625 C 19.449219 78.324219 19.144531 78.527344 18.800781 78.671875 C 18.453125 78.816406 18.09375 78.886719 17.71875 78.886719 C 17.347656 78.886719 16.984375 78.816406 16.640625 78.671875 C 16.292969 78.527344 15.988281 78.324219 15.726562 78.0625 C 15.460938 77.796875 15.257812 77.492188 15.113281 77.144531 C 14.96875 76.800781 14.898438 76.441406 14.898438 76.066406 L 14.898438 68.832031 C 14.894531 68.457031 14.964844 68.09375 15.105469 67.746094 C 15.246094 67.394531 15.449219 67.085938 15.714844 66.820312 C 15.980469 66.550781 16.285156 66.34375 16.632812 66.199219 C 16.980469 66.054688 17.34375 65.980469 17.71875 65.980469 Z M 16.371094 59.980469 L 16.371094 63.28125 C 15.742188 63.429688 15.15625 63.675781 14.609375 64.023438 C 14.0625 64.367188 13.589844 64.789062 13.183594 65.292969 C 12.78125 65.796875 12.46875 66.347656 12.246094 66.957031 C 12.027344 67.5625 11.910156 68.1875 11.898438 68.832031 L 11.898438 69.792969 L 9.828125 69.792969 Z M 8.535156 72.792969 L 11.898438 72.792969 L 11.898438 75.617188 L 8.535156 75.617188 Z M 8.535156 78.617188 L 12.496094 78.617188 C 12.734375 79.109375 13.035156 79.558594 13.398438 79.964844 C 13.761719 80.375 14.171875 80.722656 14.636719 81.011719 C 15.097656 81.304688 15.589844 81.523438 16.113281 81.675781 C 16.640625 81.828125 17.175781 81.902344 17.71875 81.902344 C 18.265625 81.902344 18.800781 81.828125 19.324219 81.675781 C 19.851562 81.523438 20.34375 81.304688 20.804688 81.011719 C 21.265625 80.722656 21.679688 80.375 22.042969 79.964844 C 22.40625 79.558594 22.707031 79.109375 22.941406 78.617188 L 83.839844 78.617188 C 83.410156 79.699219 83.128906 80.820312 83 81.976562 L 8.535156 81.976562 Z M 8.535156 84.980469 L 83 84.980469 C 83.140625 86.140625 83.429688 87.257812 83.871094 88.339844 L 8.535156 88.339844 Z M 8.535156 94.164062 L 8.535156 91.339844 L 85.519531 91.339844 C 86.328125 92.429688 87.277344 93.371094 88.371094 94.164062 Z M 8.535156 94.164062 " fill-opacity="1" fill-rule="nonzero"/></g><path fill="#f53163" d="M 69.523438 34.738281 C 69.324219 34.777344 69.144531 34.847656 68.972656 34.960938 C 68.804688 35.070312 68.664062 35.207031 68.550781 35.375 C 68.441406 35.539062 68.363281 35.722656 68.324219 35.917969 C 68.285156 36.117188 68.285156 36.3125 68.324219 36.511719 L 70.125 45.90625 C 70.1875 46.257812 70.359375 46.554688 70.636719 46.785156 C 70.914062 47.015625 71.234375 47.132812 71.59375 47.136719 L 71.894531 47.136719 C 72.09375 47.097656 72.277344 47.027344 72.445312 46.914062 C 72.613281 46.804688 72.753906 46.667969 72.867188 46.5 C 72.980469 46.335938 73.054688 46.152344 73.09375 45.957031 C 73.136719 45.757812 73.136719 45.5625 73.09375 45.363281 L 71.292969 36 C 71.265625 35.796875 71.199219 35.609375 71.089844 35.433594 C 70.984375 35.257812 70.847656 35.109375 70.679688 34.992188 C 70.511719 34.871094 70.328125 34.789062 70.128906 34.746094 C 69.925781 34.703125 69.726562 34.699219 69.523438 34.738281 Z M 69.523438 34.738281 " fill-opacity="1" fill-rule="nonzero"/><g fill="#f53163" fill-opacity="1"><g transform="translate(100.711457, 84.967186)"><g><path d="M 50.21875 -6.28125 C 50.488281 -5.582031 50.625 -4.9375 50.625 -4.34375 C 50.625 -2.945312 50.164062 -1.804688 49.25 -0.921875 C 48.34375 -0.0351562 47.300781 0.40625 46.125 0.40625 C 45.15625 0.40625 44.28125 0.109375 43.5 -0.484375 C 42.71875 -1.078125 42.113281 -1.878906 41.6875 -2.890625 L 37.5 -12.640625 L 13.515625 -12.640625 L 9.34375 -2.8125 C 8.957031 -1.789062 8.375 -1 7.59375 -0.4375 C 6.820312 0.125 5.984375 0.40625 5.078125 0.40625 C 3.679688 0.40625 2.617188 0.03125 1.890625 -0.71875 C 1.171875 -1.46875 0.8125 -2.488281 0.8125 -3.78125 C 0.8125 -4.257812 0.890625 -4.769531 1.046875 -5.3125 L 21.09375 -53.4375 C 21.519531 -54.507812 22.160156 -55.34375 23.015625 -55.9375 C 23.878906 -56.53125 24.847656 -56.769531 25.921875 -56.65625 C 26.878906 -56.65625 27.773438 -56.375 28.609375 -55.8125 C 29.441406 -55.25 30.046875 -54.457031 30.421875 -53.4375 Z M 17.46875 -21.890625 L 33.5625 -21.890625 L 25.4375 -40.71875 Z M 17.46875 -21.890625 "/></g></g></g><g fill="#f53163" fill-opacity="1"><g transform="translate(152.136538, 84.967186)"><g><path d="M 37.109375 -9.421875 C 38.503906 -9.421875 39.671875 -8.976562 40.609375 -8.09375 C 41.546875 -7.207031 42.015625 -6.066406 42.015625 -4.671875 C 42.015625 -3.328125 41.546875 -2.210938 40.609375 -1.328125 C 39.671875 -0.441406 38.503906 0 37.109375 0 L 10.953125 0 C 9.554688 0 8.382812 -0.46875 7.4375 -1.40625 C 6.5 -2.34375 6.03125 -3.507812 6.03125 -4.90625 L 6.03125 -51.421875 C 6.03125 -52.816406 6.515625 -53.984375 7.484375 -54.921875 C 8.453125 -55.867188 9.6875 -56.34375 11.1875 -56.34375 C 12.53125 -56.34375 13.679688 -55.867188 14.640625 -54.921875 C 15.609375 -53.984375 16.09375 -52.816406 16.09375 -51.421875 L 16.09375 -9.421875 Z M 37.109375 -9.421875 "/></g></g></g><g fill="#f53163" fill-opacity="1"><g transform="translate(197.364861, 84.967186)"><g><path d="M 29.296875 -56.34375 C 32.035156 -56.34375 34.640625 -55.519531 37.109375 -53.875 C 39.578125 -52.238281 41.5625 -50.039062 43.0625 -47.28125 C 44.5625 -44.519531 45.3125 -41.503906 45.3125 -38.234375 C 45.3125 -35.015625 44.5625 -32.007812 43.0625 -29.21875 C 41.5625 -26.425781 39.578125 -24.210938 37.109375 -22.578125 C 34.640625 -20.941406 32.035156 -20.125 29.296875 -20.125 L 15.296875 -20.125 L 15.296875 -4.90625 C 15.296875 -3.457031 14.863281 -2.273438 14 -1.359375 C 13.144531 -0.453125 12.019531 0 10.625 0 C 9.28125 0 8.175781 -0.46875 7.3125 -1.40625 C 6.457031 -2.34375 6.03125 -3.507812 6.03125 -4.90625 L 6.03125 -51.421875 C 6.03125 -52.816406 6.5 -53.984375 7.4375 -54.921875 C 8.382812 -55.867188 9.554688 -56.34375 10.953125 -56.34375 Z M 29.296875 -29.296875 C 30.316406 -29.296875 31.320312 -29.722656 32.3125 -30.578125 C 33.300781 -31.441406 34.101562 -32.554688 34.71875 -33.921875 C 35.34375 -35.285156 35.65625 -36.722656 35.65625 -38.234375 C 35.65625 -39.734375 35.34375 -41.164062 34.71875 -42.53125 C 34.101562 -43.90625 33.300781 -45.003906 32.3125 -45.828125 C 31.320312 -46.660156 30.316406 -47.078125 29.296875 -47.078125 L 15.296875 -47.078125 L 15.296875 -29.296875 Z M 29.296875 -29.296875 "/></g></g></g><g fill="#f53163" fill-opacity="1"><g transform="translate(245.892756, 84.967186)"><g><path d="M 46.84375 -56.34375 C 48.34375 -56.34375 49.546875 -55.882812 50.453125 -54.96875 C 51.367188 -54.0625 51.828125 -52.878906 51.828125 -51.421875 L 51.828125 -4.90625 C 51.828125 -3.507812 51.34375 -2.34375 50.375 -1.40625 C 49.414062 -0.46875 48.1875 0 46.6875 0 C 45.34375 0 44.1875 -0.46875 43.21875 -1.40625 C 42.25 -2.34375 41.765625 -3.507812 41.765625 -4.90625 L 41.765625 -23.65625 L 16.09375 -23.65625 L 16.09375 -4.90625 C 16.09375 -3.507812 15.582031 -2.34375 14.5625 -1.40625 C 13.539062 -0.46875 12.363281 0 11.03125 0 C 9.582031 0 8.382812 -0.46875 7.4375 -1.40625 C 6.5 -2.34375 6.03125 -3.507812 6.03125 -4.90625 L 6.03125 -51.421875 C 6.03125 -52.816406 6.515625 -53.984375 7.484375 -54.921875 C 8.453125 -55.867188 9.6875 -56.34375 11.1875 -56.34375 C 12.53125 -56.34375 13.679688 -55.867188 14.640625 -54.921875 C 15.609375 -53.984375 16.09375 -52.816406 16.09375 -51.421875 L 16.09375 -32.921875 L 41.765625 -32.921875 L 41.765625 -51.421875 C 41.765625 -52.816406 42.273438 -53.984375 43.296875 -54.921875 C 44.316406 -55.867188 45.5 -56.34375 46.84375 -56.34375 Z M 46.84375 -56.34375 "/></g></g></g><g fill="#f53163" fill-opacity="1"><g transform="translate(303.756037, 84.967186)"><g><path d="M 50.21875 -6.28125 C 50.488281 -5.582031 50.625 -4.9375 50.625 -4.34375 C 50.625 -2.945312 50.164062 -1.804688 49.25 -0.921875 C 48.34375 -0.0351562 47.300781 0.40625 46.125 0.40625 C 45.15625 0.40625 44.28125 0.109375 43.5 -0.484375 C 42.71875 -1.078125 42.113281 -1.878906 41.6875 -2.890625 L 37.5 -12.640625 L 13.515625 -12.640625 L 9.34375 -2.8125 C 8.957031 -1.789062 8.375 -1 7.59375 -0.4375 C 6.820312 0.125 5.984375 0.40625 5.078125 0.40625 C 3.679688 0.40625 2.617188 0.03125 1.890625 -0.71875 C 1.171875 -1.46875 0.8125 -2.488281 0.8125 -3.78125 C 0.8125 -4.257812 0.890625 -4.769531 1.046875 -5.3125 L 21.09375 -53.4375 C 21.519531 -54.507812 22.160156 -55.34375 23.015625 -55.9375 C 23.878906 -56.53125 24.847656 -56.769531 25.921875 -56.65625 C 26.878906 -56.65625 27.773438 -56.375 28.609375 -55.8125 C 29.441406 -55.25 30.046875 -54.457031 30.421875 -53.4375 Z M 17.46875 -21.890625 L 33.5625 -21.890625 L 25.4375 -40.71875 Z M 17.46875 -21.890625 "/></g></g></g><g fill="#bf003c" fill-opacity="1"><g transform="translate(355.178529, 84.967186)"><g><path d="M 21.96875 -57.390625 C 25.675781 -57.390625 28.976562 -56.351562 31.875 -54.28125 C 34.769531 -52.21875 36.992188 -49.507812 38.546875 -46.15625 C 40.109375 -42.800781 40.890625 -39.21875 40.890625 -35.40625 C 40.890625 -31.488281 40.203125 -27.179688 38.828125 -22.484375 C 37.460938 -17.796875 34.96875 -13.359375 31.34375 -9.171875 C 27.726562 -4.984375 22.804688 -2.003906 16.578125 -0.234375 C 15.929688 -0.078125 15.316406 0 14.734375 0 C 13.335938 0 12.179688 -0.359375 11.265625 -1.078125 C 10.359375 -1.804688 9.90625 -2.945312 9.90625 -4.5 C 9.90625 -5.6875 10.289062 -6.722656 11.0625 -7.609375 C 11.84375 -8.492188 12.878906 -9.125 14.171875 -9.5 C 17.546875 -10.46875 20.664062 -12.179688 23.53125 -14.640625 C 26.40625 -17.109375 28.515625 -20.0625 29.859375 -23.5 C 27.171875 -21.195312 24.113281 -20.046875 20.6875 -20.046875 C 17.894531 -20.046875 15.144531 -20.890625 12.4375 -22.578125 C 9.726562 -24.265625 7.515625 -26.539062 5.796875 -29.40625 C 4.078125 -32.28125 3.21875 -35.382812 3.21875 -38.71875 C 3.21875 -42.09375 4.0625 -45.210938 5.75 -48.078125 C 7.445312 -50.953125 9.71875 -53.222656 12.5625 -54.890625 C 15.40625 -56.554688 18.539062 -57.390625 21.96875 -57.390625 Z M 21.96875 -28.890625 C 24.539062 -28.890625 26.695312 -29.828125 28.4375 -31.703125 C 30.1875 -33.585938 31.0625 -35.925781 31.0625 -38.71875 C 31.0625 -41.5 30.1875 -43.828125 28.4375 -45.703125 C 26.695312 -47.585938 24.539062 -48.53125 21.96875 -48.53125 C 19.445312 -48.53125 17.300781 -47.585938 15.53125 -45.703125 C 13.757812 -43.828125 12.875 -41.5 12.875 -38.71875 C 12.875 -35.925781 13.757812 -33.585938 15.53125 -31.703125 C 17.300781 -29.828125 19.445312 -28.890625 21.96875 -28.890625 Z M 21.96875 -28.890625 "/></g></g></g><g fill="#bf003c" fill-opacity="1"><g transform="translate(399.280161, 84.967186)"><g><path d="M 37.34375 -56.34375 C 38.738281 -56.34375 39.957031 -55.898438 41 -55.015625 C 42.050781 -54.128906 42.578125 -52.988281 42.578125 -51.59375 C 42.578125 -50.894531 42.414062 -50.171875 42.09375 -49.421875 L 20.921875 -2.65625 C 20.546875 -1.6875 19.957031 -0.929688 19.15625 -0.390625 C 18.351562 0.140625 17.46875 0.40625 16.5 0.40625 C 15.15625 0.40625 13.988281 -0.046875 13 -0.953125 C 12.007812 -1.867188 11.515625 -2.972656 11.515625 -4.265625 C 11.515625 -5.015625 11.671875 -5.738281 11.984375 -6.4375 L 30.75 -47.484375 L 9.34375 -47.484375 C 8.050781 -47.484375 6.972656 -47.910156 6.109375 -48.765625 C 5.253906 -49.628906 4.828125 -50.707031 4.828125 -52 C 4.828125 -53.226562 5.253906 -54.257812 6.109375 -55.09375 C 6.972656 -55.925781 8.050781 -56.34375 9.34375 -56.34375 Z M 37.34375 -56.34375 "/></g></g></g><g fill="#f53163" fill-opacity="1"><g transform="translate(40.782987, 25.29746)"><g><path d="M 4.75 -1.203125 C 4.925781 -1.203125 5.070312 -1.144531 5.1875 -1.03125 C 5.3125 -0.914062 5.375 -0.769531 5.375 -0.59375 C 5.375 -0.425781 5.3125 -0.285156 5.1875 -0.171875 C 5.070312 -0.0546875 4.925781 0 4.75 0 L 1.40625 0 C 1.21875 0 1.0625 -0.0546875 0.9375 -0.171875 C 0.820312 -0.296875 0.765625 -0.445312 0.765625 -0.625 L 0.765625 -6.578125 C 0.765625 -6.753906 0.828125 -6.898438 0.953125 -7.015625 C 1.078125 -7.140625 1.238281 -7.203125 1.4375 -7.203125 C 1.601562 -7.203125 1.75 -7.140625 1.875 -7.015625 C 2 -6.898438 2.0625 -6.753906 2.0625 -6.578125 L 2.0625 -1.203125 Z M 4.75 -1.203125 "/></g></g></g><g fill="#f53163" fill-opacity="1"><g transform="translate(46.568773, 25.29746)"><g><path d="M 7.015625 -7.21875 C 7.191406 -7.21875 7.34375 -7.15625 7.46875 -7.03125 C 7.59375 -6.914062 7.65625 -6.769531 7.65625 -6.59375 L 7.65625 -0.625 C 7.65625 -0.445312 7.597656 -0.296875 7.484375 -0.171875 C 7.367188 -0.0546875 7.210938 0 7.015625 0 C 6.828125 0 6.671875 -0.0546875 6.546875 -0.171875 C 6.429688 -0.285156 6.375 -0.4375 6.375 -0.625 L 6.375 -4.78125 L 4.671875 -2.1875 C 4.609375 -2.101562 4.53125 -2.035156 4.4375 -1.984375 C 4.34375 -1.929688 4.25 -1.910156 4.15625 -1.921875 C 4.070312 -1.910156 3.984375 -1.929688 3.890625 -1.984375 C 3.804688 -2.035156 3.726562 -2.101562 3.65625 -2.1875 L 1.953125 -4.875 L 1.953125 -0.625 C 1.953125 -0.4375 1.894531 -0.285156 1.78125 -0.171875 C 1.675781 -0.0546875 1.535156 0 1.359375 0 C 1.191406 0 1.050781 -0.0546875 0.9375 -0.171875 C 0.820312 -0.296875 0.765625 -0.445312 0.765625 -0.625 L 0.765625 -6.59375 C 0.765625 -6.757812 0.828125 -6.90625 0.953125 -7.03125 C 1.085938 -7.15625 1.242188 -7.21875 1.421875 -7.21875 C 1.523438 -7.21875 1.628906 -7.191406 1.734375 -7.140625 C 1.835938 -7.085938 1.914062 -7.019531 1.96875 -6.9375 L 4.21875 -3.484375 L 6.515625 -6.9375 C 6.566406 -7.019531 6.640625 -7.085938 6.734375 -7.140625 C 6.828125 -7.191406 6.921875 -7.21875 7.015625 -7.21875 Z M 7.015625 -7.21875 "/></g></g></g><g fill="#f53163" fill-opacity="1"><g transform="translate(55.000372, 25.29746)"><g><path d="M 3.09375 0.109375 C 2.59375 0.109375 2.148438 0.046875 1.765625 -0.078125 C 1.378906 -0.203125 1.019531 -0.410156 0.6875 -0.703125 C 0.5 -0.867188 0.40625 -1.050781 0.40625 -1.25 C 0.40625 -1.414062 0.460938 -1.554688 0.578125 -1.671875 C 0.703125 -1.796875 0.847656 -1.859375 1.015625 -1.859375 C 1.140625 -1.859375 1.253906 -1.816406 1.359375 -1.734375 C 1.628906 -1.503906 1.894531 -1.335938 2.15625 -1.234375 C 2.414062 -1.128906 2.726562 -1.078125 3.09375 -1.078125 C 3.476562 -1.078125 3.804688 -1.160156 4.078125 -1.328125 C 4.359375 -1.503906 4.5 -1.722656 4.5 -1.984375 C 4.5 -2.285156 4.359375 -2.523438 4.078125 -2.703125 C 3.804688 -2.878906 3.375 -3.007812 2.78125 -3.09375 C 1.28125 -3.3125 0.53125 -4.015625 0.53125 -5.203125 C 0.53125 -5.628906 0.640625 -6.003906 0.859375 -6.328125 C 1.085938 -6.648438 1.394531 -6.894531 1.78125 -7.0625 C 2.175781 -7.226562 2.613281 -7.3125 3.09375 -7.3125 C 3.53125 -7.3125 3.9375 -7.242188 4.3125 -7.109375 C 4.695312 -6.984375 5.015625 -6.8125 5.265625 -6.59375 C 5.472656 -6.4375 5.578125 -6.253906 5.578125 -6.046875 C 5.578125 -5.890625 5.515625 -5.75 5.390625 -5.625 C 5.273438 -5.507812 5.140625 -5.453125 4.984375 -5.453125 C 4.878906 -5.453125 4.785156 -5.484375 4.703125 -5.546875 C 4.523438 -5.691406 4.273438 -5.820312 3.953125 -5.9375 C 3.640625 -6.0625 3.351562 -6.125 3.09375 -6.125 C 2.664062 -6.125 2.332031 -6.039062 2.09375 -5.875 C 1.851562 -5.71875 1.734375 -5.507812 1.734375 -5.25 C 1.734375 -4.957031 1.851562 -4.734375 2.09375 -4.578125 C 2.34375 -4.429688 2.726562 -4.3125 3.25 -4.21875 C 3.84375 -4.113281 4.316406 -3.976562 4.671875 -3.8125 C 5.023438 -3.65625 5.289062 -3.4375 5.46875 -3.15625 C 5.644531 -2.875 5.734375 -2.503906 5.734375 -2.046875 C 5.734375 -1.617188 5.609375 -1.238281 5.359375 -0.90625 C 5.117188 -0.582031 4.796875 -0.332031 4.390625 -0.15625 C 3.992188 0.0195312 3.5625 0.109375 3.09375 0.109375 Z M 3.09375 0.109375 "/></g></g></g></svg>